# xmcd
#
# Track frame offsets: 
#        150
#        11696
#        26860
#        36100
#        44963
#        59003
#        67913
#        83898
#        94699
#        102654
#        114624
#        130053
#        139048
#        144540
#
# Disc length: 2025 seconds
#
# Revision: 0
# Processed by: cddbd v1.5.2PL0 Copyright (c) Steve Scherf et al.
# Submitted via: ExactAudioCopy v0.95b4
#
DISCID=cf07e70e
DTITLE=Ali Gator and The Real Hot Reptile Rockers - Motorcycle Bound fea
DTITLE=t. Tommy Greed
DYEAR=2007
DGENRE=Blues
TTITLE0=Motorcycle Bound
TTITLE1=Born Deep Down In The Country
TTITLE2=I'm Lame
TTITLE3=I'm Working
TTITLE4=Bodega Bar
TTITLE5=So Good So Bad
TTITLE6=6 Feet Down
TTITLE7=I Gotta Real Strange Feeling
TTITLE8=Restless
TTITLE9=Wild
TTITLE10=Wolfcall
TTITLE11=Aligator
TTITLE12=Dance Theme
TTITLE13=Lost On B33
EXTD=
EXTT0=
EXTT1=
EXTT2=
EXTT3=
EXTT4=
EXTT5=
EXTT6=
EXTT7=
EXTT8=
EXTT9=
EXTT10=
EXTT11=
EXTT12=
EXTT13=
PLAYORDER=
